M48
INCH,LZ
;FILE_FORMAT=2:4
;TYPE=PLATED
;Layer: PTH_Through
;EasyEDA v6.5.51, 2025-11-06 08:27:50
;27a844e1b91c41148074433a3f3d6619,0b2f8be7abf649b19ad213f5e26a3a38,10
;Gerber Generator version 0.2
;Holesize 1 = 0.0120 inch
T01C0.0120
;Holesize 2 = 0.0280 inch
T02C0.0280
;Holesize 3 = 0.0280 inch
T03C0.0280
;Holesize 4 = 0.0310 inch
T04C0.0310
;Holesize 5 = 0.0320 inch
T05C0.0320
;Holesize 6 = 0.0350 inch
T06C0.0350
;Holesize 7 = 0.0360 inch
T07C0.0360
;Holesize 8 = 0.0390 inch
T08C0.0390
;Holesize 9 = 0.0470 inch
T09C0.0470
%
G05
G90
T01
X034418Y058539
X039055Y054755
X026409Y066159
X021363Y061112
X020666Y054227
X020692Y050388
X034619Y059404
X025936Y041993
X023880Y064501
X038213Y042395
T02
X029699Y067917
X030683Y066933
X028715Y066933
X034457Y067989
X035441Y067005
X033473Y067005
X011295Y051805
X011295Y053734
T03
X007745Y054020
X008745Y054020
X007645Y051120
X008645Y051120
T04
X023380Y059159
T05
X028422Y040069
X032478Y040069
X028456Y038212
X032512Y038212
X028422Y041847
X032478Y041847
X033527Y062034
X037583Y062034
X033527Y059784
X037583Y059784
X018518Y047940
X022574Y047940
X007368Y062420
X011423Y062420
X019304Y053857
X023359Y053857
X019325Y059159
X007404Y066913
X011459Y066913
X007397Y068834
X011452Y068834
X015692Y067490
X019747Y067490
X015691Y064840
X019746Y064840
X019319Y062120
X023374Y062120
X019291Y051607
X023346Y051607
T06
X026975Y038777
X024967Y038777
X007814Y047531
X009814Y047531
X008814Y047531
X008814Y046531
X009814Y046531
X007814Y046531
X007814Y044531
X009814Y044531
X008814Y044531
X008814Y045531
X009814Y045531
X007814Y045531
X007814Y041531
X007814Y042531
X009814Y042531
X008814Y042531
X008814Y043531
X009814Y043531
X007814Y043531
X033776Y071311
X032776Y071311
X034776Y071311
X035776Y071311
X040447Y041233
X039447Y041233
X037447Y041233
X038447Y041233
X008814Y041531
X009814Y041531
X033776Y069811
X032776Y069811
X034776Y069811
X035776Y069811
X040448Y043233
X039448Y043233
X037448Y043233
X038448Y043233
X018289Y038065
X019289Y038065
X018289Y040065
X019289Y040065
X019289Y039065
X018289Y039065
X018289Y041065
X019289Y041065
X018199Y060129
T07
X034418Y039369
X034418Y041369
X005087Y063180
X005087Y064180
X005087Y065180
X005087Y066130
X031982Y053673
X030982Y053673
X027982Y053673
X026982Y053673
X025982Y053673
X031982Y061173
X030982Y061173
X028982Y061173
X026982Y061173
X025982Y061173
X016546Y044029
X017546Y044029
X016781Y062116
X013781Y062116
X016781Y061116
X013781Y061116
X016781Y060116
X016781Y059116
X016781Y058116
X016781Y057116
X016781Y056116
X016781Y055116
X016781Y054116
X016781Y053116
X016781Y052116
X016781Y051116
X016781Y050116
X016781Y049116
X013781Y049116
X013781Y050116
X013781Y051116
X013781Y052116
X013781Y053116
X013781Y054116
X013781Y055116
X013781Y056116
X013781Y057116
X013781Y058116
X013781Y059116
X013781Y060116
X021338Y066183
X022338Y066183
X024481Y066182
X025481Y066182
X020066Y044063
X021066Y044063
X038995Y067756
X038995Y066806
X038995Y065806
X013197Y067276
X013197Y068226
X013197Y069226
X013197Y070226
X025981Y063174
X026981Y063174
X030981Y063174
X031981Y063174
X027013Y051407
X027987Y051381
X030987Y051355
X032013Y051302
X025983Y051399
X030658Y043360
X030654Y049602
X018213Y053099
X012845Y051105
X012842Y052116
X012392Y057106
T08
X023838Y047978
X023838Y044552
T09
X035180Y049956
X035180Y051956
X035251Y045456
X035251Y047456
X012037Y046385
X014037Y046385
X039549Y062413
X039549Y061413
X038545Y047423G85X038547Y047423
X038545Y045454G85X038547Y045454
X038545Y049391G85X038547Y049391
X004439Y057319
X005439Y057319
X012446Y037572
X012446Y038572
X016046Y037530
X016046Y038530
X009395Y057970
X009395Y059970
X005038Y051720
X005038Y053720
X024989Y041841
X026989Y041841
X004688Y046229
X004688Y045229
X004688Y044229
X004688Y043229
X025651Y044830
X028651Y044830
X030651Y044830
X032651Y044830
X032651Y047830
X030651Y047830
X028651Y047830
X025651Y047830
X039648Y054714
X039648Y053714
X039553Y058620
X039553Y057620
X016459Y070720
X017459Y070720
X020959Y070763
X021959Y070763
X025337Y070813
X026337Y070813
X029530Y070784
X030530Y070784
X008630Y037608
X008630Y038608
X021824Y037609
X021824Y038609
X007486Y064509
X008076Y071726
M30
