G04 Layer: BottomLayer*
G04 EasyEDA v6.5.51, 2025-11-01 08:24:16*
G04 27a844e1b91c41148074433a3f3d6619,0b2f8be7abf649b19ad213f5e26a3a38,10*
G04 Gerber Generator version 0.2*
G04 Scale: 100 percent, Rotated: No, Reflected: No *
G04 Dimensions in inches *
G04 leading zeros omitted , absolute positions ,3 integer and 6 decimal *
%FSLAX36Y36*%
%MOIN*%

%ADD10C,0.0100*%
%ADD11C,0.0709*%
%ADD12R,0.0787X0.0787*%
%ADD13C,0.0787*%
%ADD14C,0.0512*%
%ADD15C,0.0600*%
%ADD16C,0.0984*%
%ADD17C,0.0470*%
%ADD18R,0.0709X0.0709*%
%ADD19R,0.0194X0.0709*%
%ADD20C,0.0512*%
%ADD21C,0.0630*%
%ADD22C,0.0591*%
%ADD23R,0.0591X0.0591*%
%ADD24C,0.0591*%
%ADD25C,0.0240*%

%LPD*%
D10*
X2598197Y6117296D02*
G01*
X2598167Y6117325D01*
X2598167Y6317316D01*
X2698197Y6117296D02*
G01*
X2698167Y6117325D01*
X2698167Y6317316D01*
X3441796Y3936896D02*
G01*
X3139826Y4238865D01*
X3139826Y4574036D01*
X2756576Y4957285D01*
X2756576Y5775675D01*
X3098197Y6117296D01*
X3098197Y6117296D02*
G01*
X3098167Y6117325D01*
X3098167Y6317316D01*
X3441796Y4136896D02*
G01*
X3441796Y5853935D01*
X3198197Y6117296D02*
G01*
X3198167Y6117325D01*
X3198167Y6317316D01*
X503867Y5371916D02*
G01*
X443897Y5431885D01*
X443897Y5731896D01*
X3854597Y4545446D02*
G01*
X3654447Y4745596D01*
X3525096Y4745596D01*
X3944767Y4163746D02*
G01*
X3904237Y4204276D01*
X3904237Y4495805D01*
X3854597Y4545446D01*
X2871477Y6693285D02*
G01*
X2390106Y6211916D01*
X2337426Y6211916D01*
X3525096Y4745596D02*
G01*
X3466387Y4804306D01*
X3466387Y5143986D01*
X3517996Y5195596D01*
X764566Y5111916D02*
G01*
X828657Y5047826D01*
X828657Y4246356D01*
X881467Y4193546D01*
X881467Y4153015D02*
G01*
X881467Y4193546D01*
X764566Y5111916D02*
G01*
X774566Y5121916D01*
X774566Y5401916D01*
X3944767Y4123216D02*
G01*
X3944767Y4163746D01*
X3198197Y5367296D02*
G01*
X3201367Y5364126D01*
X3201367Y5130115D01*
X2698197Y5367296D02*
G01*
X2701367Y5364126D01*
X2701367Y5140616D01*
X443897Y5731896D02*
G01*
X443897Y5782276D01*
X443897Y5782276D02*
G01*
X508697Y5847076D01*
X508697Y6317995D01*
X1604597Y3752995D02*
G01*
X1550066Y3807525D01*
X1550066Y4198366D01*
X1754597Y4402896D01*
X3347277Y6700486D02*
G01*
X3277596Y6770165D01*
X3277596Y6981095D01*
X2698896Y4184095D02*
G01*
X2698896Y4349186D01*
X2565167Y4482916D01*
X863067Y3760716D02*
G01*
X781467Y3842316D01*
X781467Y4153015D01*
X2338017Y5952946D02*
G01*
X2335927Y5950855D01*
X2335927Y5385616D01*
X2338027Y5915816D02*
G01*
X2338027Y5952946D01*
X2338017Y5952946D01*
X2338017Y5952946D02*
G01*
X2338017Y6211325D01*
X2337426Y6211916D01*
X1974656Y6483996D02*
G01*
X1974656Y6748896D01*
X1974756Y6748996D01*
X2334627Y5160616D02*
G01*
X2335927Y5161916D01*
X2335927Y5385616D01*
X3247757Y4184695D02*
G01*
X3192956Y4239495D01*
X3192956Y4558496D01*
X2798766Y4952685D01*
X2798766Y5138015D01*
X3758257Y6203395D02*
G01*
X2922156Y5367296D01*
X2798197Y5367296D01*
X3758257Y5978395D02*
G01*
X3758257Y6203395D01*
X2798197Y5367296D02*
G01*
X2798766Y5366725D01*
X2798766Y5138015D01*
X2598197Y5367296D02*
G01*
X2598366Y5367125D01*
X2598366Y5139816D01*
X3913467Y5475475D02*
G01*
X3905537Y5475475D01*
X3913467Y5475475D02*
G01*
X3913467Y5720176D01*
X3955297Y5762006D01*
X3944867Y4323245D02*
G01*
X3944867Y4968915D01*
X3913467Y5000315D01*
X3913467Y5475475D01*
X1319696Y6822595D02*
G01*
X1420937Y6721356D01*
X1420937Y5654436D01*
X1378096Y5611596D01*
X3899566Y6680515D02*
G01*
X3686997Y6893085D01*
X3686997Y7021696D01*
X3577596Y7131095D01*
X3954897Y6241296D02*
G01*
X3954897Y6625185D01*
X3899566Y6680515D01*
X3098197Y5367296D02*
G01*
X3098766Y5366725D01*
X3098766Y5135416D01*
X1378096Y5611596D02*
G01*
X1180617Y5414115D01*
X1180617Y4952166D01*
X981467Y4753015D01*
X1678096Y5411596D02*
G01*
X1720937Y5454436D01*
X1720937Y5668755D01*
X1678096Y5711596D01*
X3955297Y5762006D02*
G01*
X3899807Y5817496D01*
X3899807Y6186206D01*
X3954897Y6241296D01*
X736806Y6241916D02*
G01*
X610727Y6367995D01*
X499077Y6367995D01*
X465846Y6401226D01*
X465846Y6570146D01*
X508697Y6612995D01*
X1145227Y6883316D02*
G01*
X1145227Y6691916D01*
X1145927Y6691215D01*
X807667Y7172516D02*
G01*
X807667Y6509816D01*
X748667Y6450816D01*
X3065167Y4482916D02*
G01*
X3065866Y4482215D01*
X3065866Y4335916D01*
X3065167Y4782916D02*
G01*
X3065447Y4783195D01*
X3065447Y4960146D01*
X2136266Y6111206D02*
G01*
X2640927Y6615866D01*
X2633766Y7081215D02*
G01*
X2498096Y6945545D01*
X2498096Y6527256D01*
X2066557Y6095716D01*
X2066557Y5422696D01*
X1930406Y5385616D02*
G01*
X1930406Y5263906D01*
X1678096Y5011596D01*
X2842236Y4006896D02*
G01*
X2802346Y4006896D01*
X2616666Y4192575D01*
X2616666Y4208806D01*
X2463217Y4362256D01*
X2463217Y4644845D01*
X2069237Y5038825D01*
X2845636Y3821196D02*
G01*
X2842236Y3824596D01*
X2842236Y4006896D01*
X3544126Y6700486D02*
G01*
X3544126Y6022646D01*
X3461917Y5940436D01*
X2593596Y4199245D02*
G01*
X2593596Y3981595D01*
X2697497Y3877696D01*
X2865167Y4782916D02*
G01*
X2865167Y4482916D01*
X2233797Y6618296D02*
G01*
X2388006Y6464086D01*
X2388006Y6450115D01*
X3955297Y5862006D02*
G01*
X4016517Y5800785D01*
X4016517Y4363825D01*
X4000537Y4347846D01*
X4000537Y4097766D01*
X3985376Y4082606D01*
X3907076Y4082606D01*
X3888157Y4101525D01*
X3888157Y4172586D01*
X3821247Y4239495D01*
X1637016Y4834146D02*
G01*
X1637016Y4611925D01*
X1244597Y4219506D01*
X1244597Y3857195D01*
X1678096Y5811596D02*
G01*
X1637016Y5770515D01*
X1637016Y4834146D01*
X1637016Y4834146D02*
G01*
X2217206Y4834146D01*
X2257357Y4793996D01*
X3265167Y4782916D02*
G01*
X3265167Y4482916D01*
X2195967Y7076215D02*
G01*
X2021496Y6901745D01*
X2021496Y5253006D01*
X1929107Y5160616D01*
X1929107Y5160616D02*
G01*
X1680087Y4911596D01*
X1678096Y4911596D01*
X1932506Y5915816D02*
G01*
X1971706Y5955016D01*
X1971706Y6421596D01*
X1931836Y6461466D01*
X1931836Y7010236D01*
X2056737Y7135136D01*
X2996247Y7135136D01*
X3053067Y7078316D01*
X1678096Y5111596D02*
G01*
X1737016Y5170515D01*
X1737016Y5720326D01*
X1932506Y5915816D01*
X1569137Y6483996D02*
G01*
X1569137Y5102636D01*
X1378096Y4911596D01*
X1569237Y6748996D02*
G01*
X1437016Y6616776D01*
X1437016Y5070515D01*
X1378096Y5011596D01*
X739706Y6883316D02*
G01*
X567617Y6711226D01*
X567617Y6476916D01*
X508697Y6417995D01*
X1745967Y7071916D02*
G01*
X1745967Y6397856D01*
X1931907Y6211916D01*
X468796Y4422905D02*
G01*
X677806Y4631916D01*
X677806Y5361995D01*
X1327407Y6011596D01*
X1378096Y6011596D01*
X468796Y4522905D02*
G01*
X611377Y4665486D01*
X611377Y5344875D01*
X1378096Y6111596D01*
X939566Y5996916D02*
G01*
X1142326Y6199675D01*
X1142326Y6241916D01*
X468796Y4622905D02*
G01*
X468796Y4669346D01*
X468796Y4669346D02*
G01*
X594346Y4794895D01*
X594346Y5451696D01*
X939566Y5796916D01*
X2548096Y6618195D02*
G01*
X2664267Y6734366D01*
X2894706Y6734366D01*
X3305726Y6323346D01*
X3305726Y6025405D01*
X3352736Y5978395D01*
X2106666Y4406215D02*
G01*
X2106666Y4539166D01*
X1851836Y4793996D01*
X3854597Y4742296D02*
G01*
X3771297Y4742296D01*
X3517996Y4995596D01*
X3247757Y4006896D02*
G01*
X2565167Y4689486D01*
X2565167Y4782916D01*
X2565167Y4782916D02*
G01*
X2398636Y4782916D01*
X2383797Y4797755D01*
X863067Y3860716D02*
G01*
X1203697Y4201345D01*
X1203697Y4638496D01*
X1678096Y6111596D02*
G01*
X1723416Y6156916D01*
X1723416Y6647626D01*
X1448446Y6922595D01*
X1319696Y6922595D01*
D11*
G01*
X3518000Y4995599D03*
G01*
X3518000Y5195599D03*
G01*
X3525100Y4545599D03*
G01*
X3525100Y4745599D03*
G01*
X1203699Y4638499D03*
G01*
X1403699Y4638499D03*
D12*
G01*
X3954899Y6241300D03*
D13*
G01*
X3954899Y6141300D03*
D14*
G01*
X2842240Y4006900D03*
G01*
X3247759Y4006900D03*
G01*
X2845640Y3821199D03*
G01*
X3251160Y3821199D03*
G01*
X2842240Y4184699D03*
G01*
X3247759Y4184699D03*
D15*
G01*
X3441800Y3936900D03*
G01*
X3441800Y4136900D03*
G01*
X508699Y6318000D03*
G01*
X508699Y6418000D03*
G01*
X508699Y6518000D03*
G01*
X508699Y6613000D03*
D14*
G01*
X3352740Y6203400D03*
G01*
X3758260Y6203400D03*
G01*
X3352740Y5978400D03*
G01*
X3758260Y5978400D03*
G01*
X1851840Y4794000D03*
G01*
X2257359Y4794000D03*
D16*
G01*
X3854600Y4742300D03*
G01*
X3854600Y4545450D03*
G01*
X3854600Y4939150D03*
D15*
G01*
X3198199Y5367300D03*
G01*
X3098199Y5367300D03*
G01*
X2798199Y5367300D03*
G01*
X2698199Y5367300D03*
G01*
X2598199Y5367300D03*
G01*
X3198199Y6117300D03*
G01*
X3098199Y6117300D03*
G01*
X2898199Y6117300D03*
G01*
X2698199Y6117300D03*
G01*
X2598199Y6117300D03*
D11*
G01*
X2383800Y4797759D03*
G01*
X2383800Y4455239D03*
D15*
G01*
X1654600Y4402900D03*
G01*
X1754600Y4402900D03*
D12*
G01*
X443899Y5731900D03*
D13*
G01*
X543899Y5731900D03*
D12*
G01*
X1244600Y3757199D03*
D13*
G01*
X1244600Y3857199D03*
D12*
G01*
X1604600Y3753000D03*
D13*
G01*
X1604600Y3853000D03*
D15*
G01*
X2969910Y6791709D03*
G01*
X3068329Y6693290D03*
G01*
X2871480Y6693290D03*
G01*
X3445709Y6798910D03*
G01*
X3544129Y6700490D03*
G01*
X3347280Y6700490D03*
G01*
X1678100Y6211599D03*
G01*
X1378100Y6211599D03*
G01*
X1678100Y6111599D03*
G01*
X1378100Y6111599D03*
G01*
X1678100Y6011599D03*
G01*
X1678100Y5911599D03*
G01*
X1678100Y5811599D03*
G01*
X1678100Y5711599D03*
G01*
X1678100Y5611599D03*
G01*
X1678100Y5511599D03*
G01*
X1678100Y5411599D03*
G01*
X1678100Y5311599D03*
G01*
X1678100Y5211599D03*
G01*
X1678100Y5111599D03*
G01*
X1678100Y5011599D03*
G01*
X1678100Y4911599D03*
G01*
X1378100Y4911599D03*
G01*
X1378100Y5011599D03*
G01*
X1378100Y5111599D03*
G01*
X1378100Y5211599D03*
G01*
X1378100Y5311599D03*
G01*
X1378100Y5411599D03*
G01*
X1378100Y5511599D03*
G01*
X1378100Y5611599D03*
G01*
X1378100Y5711599D03*
G01*
X1378100Y5811599D03*
G01*
X1378100Y5911599D03*
G01*
X1378100Y6011599D03*
D11*
G01*
X939570Y5796920D03*
G01*
X939570Y5996920D03*
G01*
X503870Y5171920D03*
G01*
X503870Y5371920D03*
G01*
X2498900Y4184099D03*
G01*
X2698900Y4184099D03*
D17*
G01*
X774570Y5401920D03*
G01*
X874570Y5401920D03*
G01*
X764570Y5111920D03*
G01*
X864570Y5111920D03*
D15*
G01*
X2133800Y6618299D03*
G01*
X2233800Y6618299D03*
G01*
X2448100Y6618200D03*
G01*
X2548100Y6618200D03*
G01*
X2006670Y4406219D03*
G01*
X2106670Y4406219D03*
D16*
G01*
X2697500Y3877700D03*
G01*
X2496700Y3877700D03*
D18*
G01*
X468800Y4622900D03*
D11*
G01*
X468800Y4522900D03*
G01*
X468800Y4422900D03*
G01*
X468800Y4322900D03*
G01*
X2565169Y4482919D03*
G01*
X2865169Y4482919D03*
G01*
X3065169Y4482919D03*
G01*
X3265169Y4482919D03*
G01*
X3265169Y4782919D03*
G01*
X3065169Y4782919D03*
G01*
X2865169Y4782919D03*
G01*
X2565169Y4782919D03*
D12*
G01*
X3964799Y5471399D03*
D13*
G01*
X3964799Y5371399D03*
D12*
G01*
X3955299Y5861999D03*
D13*
G01*
X3955299Y5761999D03*
D12*
G01*
X1645969Y7071920D03*
D13*
G01*
X1745969Y7071920D03*
D12*
G01*
X2095969Y7076219D03*
D13*
G01*
X2195969Y7076219D03*
D12*
G01*
X2533770Y7081219D03*
D13*
G01*
X2633770Y7081219D03*
D12*
G01*
X2953069Y7078319D03*
D13*
G01*
X3053069Y7078319D03*
D12*
G01*
X863069Y3760720D03*
D13*
G01*
X863069Y3860720D03*
D12*
G01*
X2182470Y3760819D03*
D13*
G01*
X2182470Y3860819D03*
D14*
G01*
X736810Y6241920D03*
G01*
X1142330Y6241920D03*
G01*
X1930410Y5385619D03*
G01*
X2335929Y5385619D03*
G01*
X1932510Y5915819D03*
D20*
G01*
X2338029Y5915819D03*
D14*
G01*
X740410Y6691219D03*
G01*
X1145929Y6691219D03*
G01*
X739710Y6883319D03*
G01*
X1145230Y6883319D03*
G01*
X1569239Y6749000D03*
G01*
X1974759Y6749000D03*
G01*
X1569139Y6484000D03*
G01*
X1974660Y6484000D03*
G01*
X1931909Y6211920D03*
G01*
X2337430Y6211920D03*
G01*
X1929110Y5160619D03*
G01*
X2334629Y5160619D03*
D15*
G01*
X3899570Y6775520D03*
G01*
X3899570Y6680520D03*
G01*
X3899570Y6580520D03*
G01*
X1319700Y6727600D03*
G01*
X1319700Y6822600D03*
G01*
X1319700Y6922600D03*
G01*
X1319700Y7022600D03*
D21*
G01*
X1129570Y5180470D03*
G01*
X1129570Y5373370D03*
D15*
G01*
X2598170Y6317320D03*
G01*
X2698170Y6317320D03*
G01*
X3098170Y6317320D03*
G01*
X3198170Y6317320D03*
G01*
X2701369Y5140619D03*
G01*
X2798770Y5138020D03*
G01*
X3098770Y5135419D03*
G01*
X3201369Y5130120D03*
G01*
X2598370Y5139820D03*
D13*
G01*
X748670Y6450819D03*
G01*
X807669Y7172519D03*
D22*
G01*
X781469Y4753020D03*
G01*
X981469Y4753020D03*
G01*
X881469Y4753020D03*
G01*
X881469Y4653020D03*
G01*
X981469Y4653020D03*
G01*
X781469Y4653020D03*
G01*
X781469Y4453020D03*
G01*
X981469Y4453020D03*
G01*
X881469Y4453020D03*
G01*
X881469Y4553020D03*
G01*
X981469Y4553020D03*
G01*
X781469Y4553020D03*
D23*
G01*
X781469Y4153020D03*
D22*
G01*
X781469Y4253020D03*
G01*
X981469Y4253020D03*
G01*
X881469Y4253020D03*
G01*
X881469Y4353020D03*
G01*
X981469Y4353020D03*
G01*
X781469Y4353020D03*
G01*
X3377600Y7131100D03*
G01*
X3277600Y7131100D03*
G01*
X3477600Y7131100D03*
G01*
X3577600Y7131100D03*
D23*
G01*
X4044769Y4123220D03*
G01*
X3944769Y4123220D03*
G01*
X3744769Y4123220D03*
G01*
X3844769Y4123220D03*
G01*
X881469Y4153020D03*
G01*
X981469Y4153020D03*
G01*
X3377600Y6981100D03*
G01*
X3277600Y6981100D03*
G01*
X3477600Y6981100D03*
G01*
X3577600Y6981100D03*
D22*
G01*
X4044870Y4323249D03*
G01*
X3944870Y4323249D03*
G01*
X3744870Y4323249D03*
G01*
X3844870Y4323249D03*
G01*
X1828969Y3806419D03*
G01*
X1928969Y3806419D03*
G01*
X1828969Y4006419D03*
G01*
X1928969Y4006419D03*
G01*
X1928969Y3906419D03*
G01*
X1828969Y3906419D03*
G01*
X1828969Y4106419D03*
G01*
X1928969Y4106419D03*
D15*
G01*
X3065870Y4335920D03*
G01*
X3065450Y4960149D03*
D24*
G01*
X1819899Y6012900D03*
D15*
G01*
X1821300Y5309899D03*
G01*
X1284499Y5110500D03*
G01*
X1284200Y5211599D03*
G01*
X1239200Y5710599D03*
D25*
G01*
X3441800Y5853939D03*
G01*
X3905540Y5475479D03*
G01*
X2640929Y6615870D03*
G01*
X2136270Y6111210D03*
G01*
X2066559Y5422700D03*
G01*
X2069239Y5038829D03*
G01*
X3461920Y5940439D03*
G01*
X2593599Y4199250D03*
G01*
X2388010Y6450120D03*
G01*
X3821250Y4239499D03*
M02*
